<?xml version="1.0" encoding="UTF-8" standalone="no"?><svg xmlns="http://www.w3.org/2000/svg" xmlns:xlink="http://www.w3.org/1999/xlink" fill="#000000" height="25" preserveAspectRatio="xMidYMid meet" version="1" viewBox="0.0 0.0 25.0 25.0" width="25" zoomAndPan="magnify"><g data-name="Layer 18"><g id="change1_1"><circle cx="12.5" cy="12.5" fill="#c8e944" r="12.5"/></g><g id="change2_1"><path d="M20.87,7.11l-5.59,4.43L21,16.08V7.64A1.07,1.07,0,0,0,20.87,7.11Z" fill="#ffffff"/></g><g id="change2_2"><path d="M4.13,7.11A1.07,1.07,0,0,0,4,7.64v8.44l5.72-4.54Z" fill="#ffffff"/></g><g id="change2_3"><path d="M13.3,13.11a1.12,1.12,0,0,1-.79.3,1.23,1.23,0,0,1-.84-.32l-1.3-1L4,17.11v.25a1.21,1.21,0,0,0,1.21,1.21H19.79A1.21,1.21,0,0,0,21,17.36v-.25l-6.37-5.06Z" fill="#ffffff"/></g><g id="change2_4"><path d="M11,11.54l1.18.94a.41.41,0,0,0,.58,0l1.2-1,.65-.51,5.66-4.49a1.25,1.25,0,0,0-.5-.11H5.21a1.17,1.17,0,0,0-.49.11L10.37,11Z" fill="#ffffff"/></g></g></svg>