<?xml version="1.0" encoding="UTF-8" standalone="no"?><svg xmlns="http://www.w3.org/2000/svg" xmlns:xlink="http://www.w3.org/1999/xlink" fill="#000000" height="135.9" preserveAspectRatio="xMidYMid meet" version="1" viewBox="-2.2 -2.4 97.1 135.9" width="97.1" zoomAndPan="magnify"><g id="change1_1"><path d="M 61.839844 53.792969 C 56.644531 65.667969 42.964844 71.011719 31.289062 65.726562 C 19.613281 60.445312 14.355469 46.539062 19.550781 34.664062 C 24.746094 22.792969 38.425781 17.449219 50.101562 22.730469 C 61.777344 28.015625 67.03125 41.921875 61.839844 53.792969 Z M 78.273438 25.242188 C 77.703125 24.09375 77.105469 22.953125 76.476562 21.832031 C 75.828125 20.675781 75.140625 19.539062 74.40625 18.433594 C 73.644531 17.289062 72.832031 16.175781 71.964844 15.109375 C 71.050781 13.988281 70.074219 12.914062 69.039062 11.902344 C 67.933594 10.820312 66.761719 9.808594 65.535156 8.863281 C 64.195312 7.839844 62.789062 6.898438 61.339844 6.039062 C 59.726562 5.085938 58.054688 4.234375 56.347656 3.46875 C 43.164062 -2.421875 26.804688 -0.871094 15.636719 8.546875 C 14.039062 9.894531 12.53125 11.351562 11.132812 12.902344 C 9.738281 14.453125 8.445312 16.097656 7.277344 17.828125 C 6.113281 19.554688 5.070312 21.367188 4.167969 23.246094 C 3.265625 25.125 2.507812 27.074219 1.902344 29.070312 C 1.738281 29.613281 1.585938 30.15625 1.449219 30.703125 C -2.210938 45.019531 1.613281 60.167969 6.855469 73.984375 C 7.785156 76.4375 8.761719 78.875 9.777344 81.292969 C 10.796875 83.710938 11.855469 86.109375 12.957031 88.492188 C 14.054688 90.871094 15.195312 93.234375 16.375 95.578125 C 17.550781 97.921875 18.769531 100.246094 20.019531 102.554688 C 21.273438 104.859375 22.558594 107.148438 23.878906 109.417969 C 25.199219 111.6875 26.550781 113.9375 27.9375 116.167969 C 29.320312 118.402344 30.734375 120.613281 32.179688 122.808594 C 33.625 125.003906 35.09375 127.179688 36.59375 129.335938 C 37.292969 130.335938 37.996094 131.335938 38.703125 132.332031 C 38.980469 132.722656 39.257812 133.109375 39.539062 133.5 C 39.539062 133.5 94.90625 58.632812 78.273438 25.242188" fill="#e8c192"/></g></svg>