<?xml version="1.0" encoding="UTF-8" standalone="no"?><svg xmlns="http://www.w3.org/2000/svg" fill="#ffffff" version="1.1" viewBox="0 0 64 64"><!--Generated by IJSVG (https://github.com/iconjar/IJSVG)-->
 <g id="change1_1">
  <path d="m46 31h-25.586l8.293-8.293c0.391-0.391 0.391-1.023 0-1.414s-1.023-0.391-1.414 0l-10 10c-0.391 0.391-0.391 1.023 0 1.414l10 10c0.195 0.195 0.451 0.293 0.707 0.293s0.512-0.098 0.707-0.293c0.391-0.391 0.391-1.023 0-1.414l-8.293-8.293h25.586c0.553 0 1-0.448 1-1s-0.447-1-1-1z" fill="inherit"/>
  <path d="m32 7c-13.785 0-25 11.215-25 25s11.215 25 25 25 25-11.215 25-25-11.215-25-25-25zm0 48c-12.682 0-23-10.317-23-23 0-12.682 10.318-23 23-23 12.683 0 23 10.318 23 23 0 12.683-10.317 23-23 23z" fill="inherit"/>
 </g>
</svg>